<svg xmlns="http://www.w3.org/2000/svg" viewBox="0 0 320 320" width="320" height="320">
  <!-- Color Palette -->
  <defs>
    <!-- Floor Tiles -->
    <pattern id="floor-basic" width="32" height="32" patternUnits="userSpaceOnUse">
      <rect width="32" height="32" fill="#2A3040"/>
      <circle cx="16" cy="16" r="1" fill="#3D4D6D"/>
      <rect x="0" y="0" width="32" height="1" fill="#3D4D6D"/>
      <rect x="0" y="0" width="1" height="32" fill="#3D4D6D"/>
    </pattern>
    
    <pattern id="floor-variant1" width="32" height="32" patternUnits="userSpaceOnUse">
      <rect width="32" height="32" fill="#2A3040"/>
      <circle cx="8" cy="8" r="1" fill="#3D4D6D"/>
      <circle cx="24" cy="8" r="1" fill="#3D4D6D"/>
      <circle cx="8" cy="24" r="1" fill="#3D4D6D"/>
      <circle cx="24" cy="24" r="1" fill="#3D4D6D"/>
      <rect x="0" y="0" width="32" height="1" fill="#3D4D6D"/>
      <rect x="0" y="0" width="1" height="32" fill="#3D4D6D"/>
    </pattern>
    
    <pattern id="floor-variant2" width="32" height="32" patternUnits="userSpaceOnUse">
      <rect width="32" height="32" fill="#2A3040"/>
      <rect x="8" y="8" width="16" height="16" fill="#3D4D6D33"/>
      <rect x="0" y="0" width="32" height="1" fill="#3D4D6D"/>
      <rect x="0" y="0" width="1" height="32" fill="#3D4D6D"/>
    </pattern>
    
    <!-- Wall Sections -->
    <linearGradient id="wall-gradient" x1="0%" y1="0%" x2="0%" y2="100%">
      <stop offset="0%" style="stop-color:#4D5D7D"/>
      <stop offset="100%" style="stop-color:#2A3040"/>
    </linearGradient>
    
    <linearGradient id="wall-highlight" x1="0%" y1="0%" x2="100%" y2="0%">
      <stop offset="0%" style="stop-color:#6D7D9D88"/>
      <stop offset="100%" style="stop-color:#6D7D9D00"/>
    </linearGradient>
    
    <pattern id="wall-panel" width="16" height="32" patternUnits="userSpaceOnUse">
      <rect width="16" height="32" fill="url(#wall-gradient)"/>
      <rect x="0" y="0" width="16" height="1" fill="#1A2030"/>
      <rect x="0" y="31" width="16" height="1" fill="#1A2030"/>
      <rect x="0" y="0" width="1" height="32" fill="#1A2030"/>
      <rect x="15" y="0" width="1" height="32" fill="#1A2030"/>
      <rect x="1" y="1" width="7" height="30" fill="url(#wall-highlight)"/>
    </pattern>
    
    <!-- Tech Elements -->
    <linearGradient id="tech-screen" x1="0%" y1="0%" x2="0%" y2="100%">
      <stop offset="0%" style="stop-color:#2D5D8D"/>
      <stop offset="100%" style="stop-color:#1A3050"/>
    </linearGradient>
    
    <linearGradient id="tech-light-on" x1="0%" y1="0%" x2="0%" y2="100%">
      <stop offset="0%" style="stop-color:#50EEFF"/>
      <stop offset="100%" style="stop-color:#2080AA"/>
    </linearGradient>
    
    <linearGradient id="tech-light-off" x1="0%" y1="0%" x2="0%" y2="100%">
      <stop offset="0%" style="stop-color:#404040"/>
      <stop offset="100%" style="stop-color:#202020"/>
    </linearGradient>
    
    <radialGradient id="tech-glow" cx="50%" cy="50%" r="50%" fx="50%" fy="50%">
      <stop offset="0%" style="stop-color:#50EEFF77"/>
      <stop offset="100%" style="stop-color:#50EEFF00"/>
    </radialGradient>
    
    <pattern id="terminal-screen" width="16" height="16" patternUnits="userSpaceOnUse">
      <rect width="16" height="16" fill="#121820"/>
      <rect y="2" width="16" height="1" fill="#50EEFF44"/>
      <rect y="7" width="16" height="1" fill="#50EEFF33"/>
      <rect y="12" width="16" height="1" fill="#50EEFF22"/>
    </pattern>
    
    <!-- Effects and Styles -->
    <filter id="inner-glow" x="-50%" y="-50%" width="200%" height="200%">
      <feGaussianBlur in="SourceAlpha" stdDeviation="2" result="blur"/>
      <feOffset dx="0" dy="0"/>
      <feComposite in="SourceGraphic" operator="out" result="inverse"/>
      <feFlood flood-color="#50EEFFAA" result="color"/>
      <feComposite in="color" in2="inverse" operator="in" result="shadow"/>
      <feComposite in="shadow" in2="SourceGraphic" operator="over"/>
    </filter>
    
    <filter id="soft-shadow" x="-10%" y="-10%" width="120%" height="120%">
      <feDropShadow dx="1" dy="2" stdDeviation="2" flood-color="#00000066"/>
    </filter>
  </defs>

  <!-- Floor Tiles - Row 1 -->
  <g transform="translate(0, 0)">
    <rect x="0" y="0" width="32" height="32" fill="url(#floor-basic)"/>
    <rect x="32" y="0" width="32" height="32" fill="url(#floor-variant1)"/>
    <rect x="64" y="0" width="32" height="32" fill="url(#floor-variant2)"/>
    
    <!-- Floor with indicator light -->
    <g transform="translate(96, 0)">
      <rect x="0" y="0" width="32" height="32" fill="url(#floor-basic)"/>
      <circle cx="16" cy="16" r="6" fill="#1A2030"/>
      <circle cx="16" cy="16" r="4" fill="url(#tech-light-on)"/>
      <circle cx="16" cy="16" r="8" fill="url(#tech-glow)" opacity="0.5"/>
    </g>
    
    <!-- Floor with inactive indicator -->
    <g transform="translate(128, 0)">
      <rect x="0" y="0" width="32" height="32" fill="url(#floor-basic)"/>
      <circle cx="16" cy="16" r="6" fill="#1A2030"/>
      <circle cx="16" cy="16" r="4" fill="url(#tech-light-off)"/>
    </g>
  </g>

  <!-- Wall Segments - Row 2 -->
  <g transform="translate(0, 32)">
    <!-- Straight Wall -->
    <g transform="translate(0, 0)">
      <rect x="0" y="0" width="32" height="32" fill="url(#wall-panel)"/>
    </g>
    
    <!-- Wall Corner (Inner) -->
    <g transform="translate(32, 0)">
      <rect x="0" y="0" width="32" height="32" fill="url(#floor-basic)"/>
      <rect x="0" y="0" width="16" height="32" fill="url(#wall-panel)"/>
      <rect x="16" y="0" width="16" height="16" fill="url(#wall-panel)"/>
    </g>
    
    <!-- Wall Corner (Outer) -->
    <g transform="translate(64, 0)">
      <rect x="0" y="0" width="32" height="32" fill="url(#wall-panel)"/>
      <rect x="16" y="16" width="16" height="16" fill="url(#floor-basic)"/>
    </g>
    
    <!-- Wall with Lights -->
    <g transform="translate(96, 0)">
      <rect x="0" y="0" width="32" height="32" fill="url(#wall-panel)"/>
      <rect x="8" y="8" width="16" height="4" rx="2" fill="#1A2030"/>
      <rect x="10" y="9" width="12" height="2" rx="1" fill="url(#tech-light-on)"/>
      <rect x="8" y="20" width="16" height="4" rx="2" fill="#1A2030"/>
      <rect x="10" y="21" width="12" height="2" rx="1" fill="url(#tech-light-off)"/>
    </g>
    
    <!-- Wall with Data Panel -->
    <g transform="translate(128, 0)">
      <rect x="0" y="0" width="32" height="32" fill="url(#wall-panel)"/>
      <rect x="6" y="6" width="20" height="20" rx="2" fill="#1A2030"/>
      <rect x="8" y="8" width="16" height="16" fill="url(#terminal-screen)"/>
    </g>
  </g>

  <!-- Doorways - Row 3 -->
  <g transform="translate(0, 64)">
    <!-- Door Frame -->
    <g transform="translate(0, 0)">
      <rect x="0" y="0" width="32" height="32" fill="url(#floor-basic)"/>
      <rect x="0" y="0" width="4" height="32" fill="url(#wall-panel)"/>
      <rect x="28" y="0" width="4" height="32" fill="url(#wall-panel)"/>
      <rect x="4" y="0" width="24" height="4" fill="url(#wall-panel)"/>
    </g>
    
    <!-- Electronic Door (Closed) -->
    <g transform="translate(32, 0)">
      <rect x="0" y="0" width="32" height="32" fill="url(#floor-basic)"/>
      <rect x="0" y="0" width="4" height="32" fill="url(#wall-panel)"/>
      <rect x="28" y="0" width="4" height="32" fill="url(#wall-panel)"/>
      <rect x="4" y="0" width="24" height="4" fill="url(#wall-panel)"/>
      <rect x="4" y="4" width="24" height="28" fill="#1A2030"/>
      <rect x="5" y="5" width="22" height="26" fill="#2A3040"/>
      <circle cx="26" cy="16" r="2" fill="url(#tech-light-on)"/>
    </g>
    
    <!-- Electronic Door (Open) -->
    <g transform="translate(64, 0)">
      <rect x="0" y="0" width="32" height="32" fill="url(#floor-basic)"/>
      <rect x="0" y="0" width="4" height="32" fill="url(#wall-panel)"/>
      <rect x="28" y="0" width="4" height="32" fill="url(#wall-panel)"/>
      <rect x="4" y="0" width="24" height="4" fill="url(#wall-panel)"/>
      <rect x="12" y="4" width="8" height="28" fill="#1A2030"/>
      <rect x="13" y="5" width="6" height="26" fill="#2A3040"/>
      <circle cx="26" cy="16" r="2" fill="url(#tech-light-on)"/>
      <circle cx="26" cy="16" r="4" fill="url(#tech-glow)" opacity="0.5"/>
    </g>
    
    <!-- Access Panel -->
    <g transform="translate(96, 0)">
      <rect x="0" y="0" width="32" height="32" fill="url(#wall-panel)"/>
      <rect x="8" y="10" width="16" height="20" rx="2" fill="#1A2030"/>
      <rect x="10" y="12" width="12" height="12" fill="url(#tech-screen)"/>
      <circle cx="16" cy="28" r="2" fill="url(#tech-light-on)"/>
      <circle cx="16" cy="28" r="3" fill="url(#tech-glow)" opacity="0.5"/>
    </g>
    
    <!-- Teleporter/Transport Pad -->
    <g transform="translate(128, 0)">
      <rect x="0" y="0" width="32" height="32" fill="url(#floor-basic)"/>
      <circle cx="16" cy="16" r="14" fill="#1A2030"/>
      <circle cx="16" cy="16" r="12" fill="#2A3040"/>
      <circle cx="16" cy="16" r="10" fill="#1A2030"/>
      <circle cx="16" cy="16" r="8" fill="url(#tech-screen)"/>
      <circle cx="16" cy="16" r="16" fill="url(#tech-glow)" opacity="0.3"/>
    </g>
  </g>

  <!-- Computer Terminals - Row 4 -->
  <g transform="translate(0, 96)">
    <!-- Computer Station -->
    <g transform="translate(0, 0)">
      <rect x="0" y="0" width="32" height="32" fill="url(#floor-basic)"/>
      <rect x="4" y="4" width="24" height="16" rx="2" fill="#1A2030"/>
      <rect x="6" y="6" width="20" height="12" rx="1" fill="url(#tech-screen)"/>
      <rect x="10" y="20" width="12" height="2" fill="#1A2030"/>
      <rect x="8" y="22" width="16" height="8" rx="1" fill="#2A3040"/>
      <circle cx="16" cy="26" r="2" fill="url(#tech-light-on)"/>
    </g>
    
    <!-- Wall Terminal -->
    <g transform="translate(32, 0)">
      <rect x="0" y="0" width="32" height="32" fill="url(#wall-panel)"/>
      <rect x="4" y="8" width="24" height="16" rx="2" fill="#1A2030"/>
      <rect x="6" y="10" width="20" height="12" rx="1" fill="url(#tech-screen)"/>
      <circle cx="10" cy="22" r="1.5" fill="url(#tech-light-on)"/>
      <circle cx="16" cy="22" r="1.5" fill="url(#tech-light-off)"/>
      <circle cx="22" cy="22" r="1.5" fill="url(#tech-light-on)"/>
    </g>
    
    <!-- Holographic Terminal -->
    <g transform="translate(64, 0)">
      <rect x="0" y="0" width="32" height="32" fill="url(#floor-basic)"/>
      <rect x="12" y="20" width="8" height="10" rx="1" fill="#1A2030"/>
      <rect x="8" y="18" width="16" height="2" fill="#1A2030"/>
      <ellipse cx="16" cy="12" rx="10" ry="6" fill="url(#tech-glow)" opacity="0.7"/>
      <ellipse cx="16" cy="12" rx="8" ry="4" fill="url(#tech-screen)" opacity="0.8"/>
    </g>
    
    <!-- Data Storage Unit -->
    <g transform="translate(96, 0)">
      <rect x="0" y="0" width="32" height="32" fill="url(#floor-basic)"/>
      <rect x="8" y="4" width="16" height="24" rx="2" fill="#1A2030"/>
      <rect x="10" y="6" width="12" height="20" fill="#2A3040"/>
      <rect x="12" y="8" width="8" height="2" fill="url(#tech-light-on)"/>
      <rect x="12" y="12" width="8" height="2" fill="url(#tech-light-on)"/>
      <rect x="12" y="16" width="8" height="2" fill="url(#tech-light-off)"/>
      <rect x="12" y="20" width="8" height="2" fill="url(#tech-light-on)"/>
    </g>
    
    <!-- Energy Core -->
    <g transform="translate(128, 0)">
      <rect x="0" y="0" width="32" height="32" fill="url(#floor-basic)"/>
      <circle cx="16" cy="16" r="10" fill="#1A2030"/>
      <circle cx="16" cy="16" r="8" fill="url(#tech-light-on)" opacity="0.3">
        <animate attributeName="opacity" values="0.3;0.8;0.3" dur="4s" repeatCount="indefinite"/>
      </circle>
      <circle cx="16" cy="16" r="4" fill="#FFFFFF" opacity="0.7">
        <animate attributeName="opacity" values="0.7;1;0.7" dur="2s" repeatCount="indefinite"/>
      </circle>
      <circle cx="16" cy="16" r="12" fill="url(#tech-glow)" opacity="0.5">
        <animate attributeName="opacity" values="0.5;0.7;0.5" dur="3s" repeatCount="indefinite"/>
      </circle>
    </g>
  </g>

  <!-- Decorative Elements - Row 5 -->
  <g transform="translate(0, 128)">
    <!-- Warning Stripes -->
    <g transform="translate(0, 0)">
      <rect x="0" y="0" width="32" height="32" fill="url(#floor-basic)"/>
      <rect x="0" y="12" width="32" height="8" fill="#1A1A1A"/>
      <rect x="0" y="12" width="4" height="8" fill="#FFD700"/>
      <rect x="8" y="12" width="4" height="8" fill="#FFD700"/>
      <rect x="16" y="12" width="4" height="8" fill="#FFD700"/>
      <rect x="24" y="12" width="4" height="8" fill="#FFD700"/>
      <rect x="4" y="12" width="4" height="8" fill="#1A1A1A"/>
      <rect x="12" y="12" width="4" height="8" fill="#1A1A1A"/>
      <rect x="20" y="12" width="4" height="8" fill="#1A1A1A"/>
      <rect x="28" y="12" width="4" height="8" fill="#1A1A1A"/>
    </g>
    
    <!-- Ventilation Grill -->
    <g transform="translate(32, 0)">
      <rect x="0" y="0" width="32" height="32" fill="url(#floor-basic)"/>
      <rect x="4" y="4" width="24" height="24" rx="1" fill="#1A2030"/>
      <rect x="6" y="6" width="20" height="3" fill="#000000"/>
      <rect x="6" y="11" width="20" height="3" fill="#000000"/>
      <rect x="6" y="16" width="20" height="3" fill="#000000"/>
      <rect x="6" y="21" width="20" height="3" fill="#000000"/>
    </g>
    
    <!-- Pipe Junction -->
    <g transform="translate(64, 0)">
      <rect x="0" y="0" width="32" height="32" fill="url(#floor-basic)"/>
      <circle cx="16" cy="16" r="12" fill="#1A2030"/>
      <circle cx="16" cy="16" r="10" fill="#2A3040"/>
      <rect x="0" y="14" width="6" height="4" fill="#2A3040"/>
      <rect x="26" y="14" width="6" height="4" fill="#2A3040"/>
      <rect x="14" y="0" width="4" height="6" fill="#2A3040"/>
      <rect x="14" y="26" width="4" height="6" fill="#2A3040"/>
      <circle cx="16" cy="16" r="6" fill="#1A2030"/>
      <circle cx="16" cy="16" r="4" fill="#2A3040"/>
    </g>
    
    <!-- Interactive Object Indicator -->
    <g transform="translate(96, 0)">
      <rect x="0" y="0" width="32" height="32" fill="url(#floor-basic)"/>
      <circle cx="16" cy="16" r="10" fill="#1A203033"/>
      <circle cx="16" cy="16" r="8" fill="url(#tech-glow)" opacity="0.3">
        <animate attributeName="opacity" values="0.3;0.6;0.3" dur="2s" repeatCount="indefinite"/>
        <animate attributeName="r" values="8;9;8" dur="2s" repeatCount="indefinite"/>
      </circle>
      <path d="M16,10 L16,22 M10,16 L22,16" stroke="#FFFFFF" stroke-width="2" stroke-linecap="round"/>
    </g>
    
    <!-- Circuit Pattern -->
    <g transform="translate(128, 0)">
      <rect x="0" y="0" width="32" height="32" fill="url(#floor-basic)"/>
      <path d="M0,16 H8 M16,0 V8 M24,16 H32 M16,24 V32 M8,8 L12,12 M20,12 L24,8 M24,24 L20,20 M12,20 L8,24" stroke="#50EEFF44" stroke-width="1.5"/>
      <path d="M16,8 V16 H24" stroke="#50EEFF66" stroke-width="1.5"/>
      <circle cx="16" cy="16" r="2" fill="url(#tech-light-on)"/>
      <circle cx="8" cy="8" r="1.5" fill="url(#tech-light-off)"/>
      <circle cx="24" cy="8" r="1.5" fill="url(#tech-light-on)"/>
      <circle cx="8" cy="24" r="1.5" fill="url(#tech-light-on)"/>
      <circle cx="24" cy="24" r="1.5" fill="url(#tech-light-off)"/>
    </g>
  </g>
</svg>
