<svg xmlns="http://www.w3.org/2000/svg" viewBox="0 0 256 64" width="256" height="64">
  <!-- Color Palette -->
  <defs>
    <!-- Character colors -->
    <linearGradient id="skin" x1="0%" y1="0%" x2="100%" y2="0%">
      <stop offset="0%" style="stop-color:#FFD6B5"/>
      <stop offset="100%" style="stop-color:#F5C8A6"/>
    </linearGradient>
    <linearGradient id="suit" x1="0%" y1="0%" x2="100%" y2="0%">
      <stop offset="0%" style="stop-color:#49B3FF"/>
      <stop offset="100%" style="stop-color:#2D8ED9"/>
    </linearGradient>
    <linearGradient id="boots" x1="0%" y1="0%" x2="100%" y2="0%">
      <stop offset="0%" style="stop-color:#444444"/>
      <stop offset="100%" style="stop-color:#333333"/>
    </linearGradient>
    <linearGradient id="helmet" x1="0%" y1="0%" x2="100%" y2="0%">
      <stop offset="0%" style="stop-color:#76C5FF"/>
      <stop offset="100%" style="stop-color:#5DB1FF"/>
    </linearGradient>
    <!-- Shadows and highlights -->
    <filter id="shadow" x="-20%" y="-20%" width="140%" height="140%">
      <feDropShadow dx="0.5" dy="0.5" stdDeviation="0.5" flood-color="#00000044"/>
    </filter>
  </defs>

  <!-- Front View - Idle Position -->
  <g transform="translate(32, 32)">
    <!-- Body -->
    <rect x="-8" y="-5" width="16" height="22" rx="4" fill="url(#suit)" filter="url(#shadow)"/>
    
    <!-- Head -->
    <circle cx="0" cy="-14" r="8" fill="url(#skin)" filter="url(#shadow)"/>
    
    <!-- Helmet -->
    <path d="M-8,-17 Q-8,-22 0,-22 Q8,-22 8,-17 Q8,-14 5,-12 L-5,-12 Q-8,-14 -8,-17Z" fill="url(#helmet)" filter="url(#shadow)"/>
    
    <!-- Face -->
    <circle cx="-3" cy="-15" r="1" fill="#333"/>
    <circle cx="3" cy="-15" r="1" fill="#333"/>
    <path d="M-2,-11 Q0,-10 2,-11" fill="none" stroke="#333" stroke-width="0.5" stroke-linecap="round"/>
    
    <!-- Arms -->
    <rect x="-12" y="-4" width="4" height="12" rx="2" fill="url(#suit)" filter="url(#shadow)"/>
    <rect x="8" y="-4" width="4" height="12" rx="2" fill="url(#suit)" filter="url(#shadow)"/>
    
    <!-- Legs -->
    <rect x="-7" y="17" width="5" height="9" fill="url(#boots)" filter="url(#shadow)"/>
    <rect x="2" y="17" width="5" height="9" fill="url(#boots)" filter="url(#shadow)"/>
    <rect x="-7" y="10" width="5" height="7" fill="url(#suit)" filter="url(#shadow)"/>
    <rect x="2" y="10" width="5" height="7" fill="url(#suit)" filter="url(#shadow)"/>
    
    <!-- Equipment -->
    <circle cx="0" cy="2" r="3" fill="#FFD700" filter="url(#shadow)"/>
    <rect x="-6" y="2" width="12" height="1" fill="#FFD700" filter="url(#shadow)"/>
  </g>

  <!-- Back View - Idle Position -->
  <g transform="translate(96, 32)">
    <!-- Body -->
    <rect x="-8" y="-5" width="16" height="22" rx="4" fill="url(#suit)" filter="url(#shadow)"/>
    
    <!-- Head -->
    <circle cx="0" cy="-14" r="8" fill="url(#skin)" filter="url(#shadow)"/>
    
    <!-- Helmet -->
    <path d="M-8,-17 Q-8,-22 0,-22 Q8,-22 8,-17 Q8,-12 5,-12 L-5,-12 Q-8,-12 -8,-17Z" fill="url(#helmet)" filter="url(#shadow)"/>
    
    <!-- Arms -->
    <rect x="-12" y="-4" width="4" height="12" rx="2" fill="url(#suit)" filter="url(#shadow)"/>
    <rect x="8" y="-4" width="4" height="12" rx="2" fill="url(#suit)" filter="url(#shadow)"/>
    
    <!-- Legs -->
    <rect x="-7" y="17" width="5" height="9" fill="url(#boots)" filter="url(#shadow)"/>
    <rect x="2" y="17" width="5" height="9" fill="url(#boots)" filter="url(#shadow)"/>
    <rect x="-7" y="10" width="5" height="7" fill="url(#suit)" filter="url(#shadow)"/>
    <rect x="2" y="10" width="5" height="7" fill="url(#suit)" filter="url(#shadow)"/>
    
    <!-- Equipment -->
    <rect x="-4" y="0" width="8" height="10" rx="1" fill="#555" filter="url(#shadow)"/>
  </g>

  <!-- Left Side View - Idle Position -->
  <g transform="translate(160, 32)">
    <!-- Body -->
    <rect x="-6" y="-5" width="12" height="22" rx="4" fill="url(#suit)" filter="url(#shadow)"/>
    
    <!-- Head -->
    <circle cx="0" cy="-14" r="8" fill="url(#skin)" filter="url(#shadow)"/>
    
    <!-- Helmet -->
    <path d="M-8,-17 Q-8,-22 0,-22 Q8,-22 8,-17 Q8,-14 5,-12 L-5,-12 Q-8,-14 -8,-17Z" fill="url(#helmet)" filter="url(#shadow)"/>
    
    <!-- Face -->
    <circle cx="3" cy="-15" r="1" fill="#333"/>
    <path d="M3,-11 Q4,-10 5,-11" fill="none" stroke="#333" stroke-width="0.5" stroke-linecap="round"/>
    
    <!-- Arms -->
    <rect x="-2" y="-4" width="4" height="12" rx="2" fill="url(#suit)" filter="url(#shadow)"/>
    
    <!-- Legs -->
    <rect x="-3" y="17" width="5" height="9" fill="url(#boots)" filter="url(#shadow)"/>
    <rect x="-3" y="10" width="5" height="7" fill="url(#suit)" filter="url(#shadow)"/>
    
    <!-- Equipment -->
    <circle cx="0" cy="2" r="2" fill="#FFD700" filter="url(#shadow)"/>
  </g>

  <!-- Right Side View - Idle Position -->
  <g transform="translate(224, 32)">
    <!-- Body -->
    <rect x="-6" y="-5" width="12" height="22" rx="4" fill="url(#suit)" filter="url(#shadow)"/>
    
    <!-- Head -->
    <circle cx="0" cy="-14" r="8" fill="url(#skin)" filter="url(#shadow)"/>
    
    <!-- Helmet -->
    <path d="M-8,-17 Q-8,-22 0,-22 Q8,-22 8,-17 Q8,-14 5,-12 L-5,-12 Q-8,-14 -8,-17Z" fill="url(#helmet)" filter="url(#shadow)"/>
    
    <!-- Face -->
    <circle cx="-3" cy="-15" r="1" fill="#333"/>
    <path d="M-5,-11 Q-4,-10 -3,-11" fill="none" stroke="#333" stroke-width="0.5" stroke-linecap="round"/>
    
    <!-- Arms -->
    <rect x="-2" y="-4" width="4" height="12" rx="2" fill="url(#suit)" filter="url(#shadow)"/>
    
    <!-- Legs -->
    <rect x="-2" y="17" width="5" height="9" fill="url(#boots)" filter="url(#shadow)"/>
    <rect x="-2" y="10" width="5" height="7" fill="url(#suit)" filter="url(#shadow)"/>
    
    <!-- Equipment -->
    <circle cx="0" cy="2" r="2" fill="#FFD700" filter="url(#shadow)"/>
  </g>
</svg>
